HIERARCHY
ROOT joint_Root
{
	OFFSET 0.0 0.0 0.0
	CHANNELS 6 Xposition Yposition Zposition Zrotation Xrotation Yrotation 
	JOINT Hips
	{
		OFFSET -0.726466 93.3139 -2.00062
		CHANNELS 6 Xposition Yposition Zposition Zrotation Xrotation Yrotation 
		JOINT Spine
		{
			OFFSET 15.7357 0.0 0.0
			CHANNELS 6 Xposition Yposition Zposition Zrotation Xrotation Yrotation 
			JOINT Chest
			{
				OFFSET 8.98455 -0.406207 0.0
				CHANNELS 6 Xposition Yposition Zposition Zrotation Xrotation Yrotation 
				JOINT Neck
				{
					OFFSET 16.3773 0.0 0.0
					CHANNELS 6 Xposition Yposition Zposition Zrotation Xrotation Yrotation 
					JOINT Head
					{
						OFFSET 6.45672 0.0 0.0
						CHANNELS 6 Xposition Yposition Zposition Zrotation Xrotation Yrotation 
						End Site
						{
							OFFSET 0.0 0.0 0.0
						}
					}
				}
				JOINT Shoulder_L
				{
					OFFSET 12.9942 -0.242716 4.98039
					CHANNELS 6 Xposition Yposition Zposition Zrotation Xrotation Yrotation 
					JOINT UpperArm_L
					{
						OFFSET 5.34809 0.0 0.0
						CHANNELS 6 Xposition Yposition Zposition Zrotation Xrotation Yrotation 
						JOINT LowerArm_L
						{
							OFFSET 24.3286 1.87007e-05 0.0
							CHANNELS 6 Xposition Yposition Zposition Zrotation Xrotation Yrotation 
							JOINT Hand_L
							{
								OFFSET 22.2916 0.0 0.0
								CHANNELS 6 Xposition Yposition Zposition Zrotation Xrotation Yrotation 
								End Site
								{
									OFFSET 0.0 0.0 0.0
								}
							}
						}
					}
				}
				JOINT Shoulder_R
				{
					OFFSET 12.9945 -0.242716 -4.98039
					CHANNELS 6 Xposition Yposition Zposition Zrotation Xrotation Yrotation 
					JOINT UpperArm_R
					{
						OFFSET -5.34813 0.0 0.0
						CHANNELS 6 Xposition Yposition Zposition Zrotation Xrotation Yrotation 
						JOINT LowerArm_R
						{
							OFFSET -24.3289 0.000322201 0.0
							CHANNELS 6 Xposition Yposition Zposition Zrotation Xrotation Yrotation 
							JOINT Hand_R
							{
								OFFSET -22.2915 -0.000108084 0.0
								CHANNELS 6 Xposition Yposition Zposition Zrotation Xrotation Yrotation 
								End Site
								{
									OFFSET 0.0 0.0 0.0
								}
							}
						}
					}
				}
			}
		}
		JOINT UpperLeg_L
		{
			OFFSET -2.19248 -6.46944 0.0
			CHANNELS 6 Xposition Yposition Zposition Zrotation Xrotation Yrotation 
			JOINT LowerLeg_L
			{
				OFFSET 39.0811 0.0 -1.23785e-05
				CHANNELS 6 Xposition Yposition Zposition Zrotation Xrotation Yrotation 
				JOINT Foot_L
				{
					OFFSET 40.9854 0.0 -1.26872e-05
					CHANNELS 6 Xposition Yposition Zposition Zrotation Xrotation Yrotation 
					JOINT Toes_L
					{
						OFFSET 11.7543 0.0 0.0
						CHANNELS 6 Xposition Yposition Zposition Zrotation Xrotation Yrotation 
						End Site
						{
							OFFSET 0.0 0.0 0.0
						}
					}
				}
			}
		}
		JOINT UpperLeg_R
		{
			OFFSET -2.19251 6.46944 0.0
			CHANNELS 6 Xposition Yposition Zposition Zrotation Xrotation Yrotation 
			JOINT LowerLeg_R
			{
				OFFSET -39.0811 -0.00228153 -0.0401928
				CHANNELS 6 Xposition Yposition Zposition Zrotation Xrotation Yrotation 
				JOINT Foot_R
				{
					OFFSET -40.9854 0.0 0.0
					CHANNELS 6 Xposition Yposition Zposition Zrotation Xrotation Yrotation 
					JOINT Toes_R
					{
						OFFSET -11.7543 0.0 0.0
						CHANNELS 6 Xposition Yposition Zposition Zrotation Xrotation Yrotation 
						End Site
						{
							OFFSET 0.0 0.0 0.0
						}
					}
				}
			}
		}
	}
}
MOTION
Frames:	8
Frame Time:	0.0333333
0.000000 0.000000 0.000000 0.000000 0.000000 -0.000000 92.984800 90.486000 192.544000 -88.780400 36.806100 -175.911000 15.735700 0.000005 -0.000001 106.471000 81.078000 -106.013000 8.984550 -0.406207 -0.000000 9.352290 5.037090 0.502772 16.377300 -0.000001 -0.000001 10.057900 6.819620 -2.981620 6.456720 -0.000001 -0.000000 2.331280 8.032550 1.077780 12.994200 -0.242716 4.980390 -87.968700 -4.117170 -63.710100 5.348090 -0.000007 -0.000001 -68.741300 25.346300 2.181450 24.328600 0.000019 0.000005 6.207660 10.185700 -31.594700 22.291600 -0.000001 0.000005 1.631730 5.516630 -7.218860 12.994500 -0.242716 -4.980390 88.857400 3.206600 -70.375400 -5.348130 -0.000001 -0.000004 -38.607400 20.040900 -33.309400 -24.328900 0.000322 -0.000009 3.102670 3.482010 -41.758700 -22.291500 -0.000108 -0.000004 3.254850 5.534570 -7.997530 -2.192480 -6.469440 -0.000000 -178.126000 -21.439800 -23.950000 39.081100 -0.000007 -0.000012 0.088535 -0.088950 44.865000 40.985400 -0.000006 -0.000013 -6.346850 5.462640 -63.914000 11.754300 -0.000000 0.000003 -0.005215 -0.063542 -19.162300 -2.192510 6.469440 -0.000001 170.097000 25.410400 -179.234000 -39.081100 -0.002282 -0.040193 0.092610 -0.160820 29.044200 -40.985400 0.000008 0.000006 -6.581980 -9.382940 -68.884400 -11.754300 -0.000006 -0.000006 -0.004196 -0.053460 -18.747800
0.000000 0.000000 0.000000 0.000000 0.000000 -0.000000 94.881100 90.255400 191.434000 -88.593300 35.165400 -176.699000 15.735700 0.000005 -0.000001 109.326000 81.114400 -109.059000 8.984550 -0.406207 -0.000000 9.025090 5.853330 0.071881 16.377300 -0.000001 -0.000001 9.765000 6.696290 -2.868450 6.456720 -0.000001 -0.000000 1.993480 6.977660 0.743828 12.994200 -0.242716 4.980390 -87.912400 -4.073880 -62.837600 5.348090 -0.000007 -0.000001 -68.135000 22.601600 3.116240 24.328600 0.000019 0.000005 6.015030 9.996820 -31.257100 22.291600 -0.000001 0.000005 2.251760 5.512720 -7.054770 12.994500 -0.242716 -4.980390 88.932200 3.040850 -70.640700 -5.348130 -0.000001 -0.000004 -35.955900 18.327300 -36.116500 -24.328900 0.000322 -0.000009 3.099590 3.383830 -42.544700 -22.291500 -0.000108 -0.000004 4.243630 5.533850 -7.965500 -2.192480 -6.469440 -0.000000 179.319000 -23.323800 -25.755400 39.081100 -0.000007 -0.000012 0.041967 -0.056558 36.575100 40.985400 -0.000006 -0.000013 -7.147590 4.171720 -63.537500 11.754300 -0.000000 0.000003 -0.004977 -0.061254 -19.069000 -2.192510 6.469440 -0.000001 170.209000 26.924800 -177.547000 -39.081100 -0.002282 -0.040193 0.084703 -0.150610 28.389200 -40.985400 0.000008 0.000006 -7.047090 -9.468880 -70.287200 -11.754300 -0.000006 -0.000006 -0.003824 -0.049601 -18.590700
0.000000 0.000000 0.000000 0.000000 0.000000 -0.000000 96.759900 89.814100 190.118000 -88.131300 33.795800 -177.621000 15.735700 0.000005 -0.000001 111.797000 81.118300 -111.634000 8.984550 -0.406207 -0.000000 8.760790 6.564200 -0.178380 16.377300 -0.000001 -0.000001 9.503290 6.456160 -2.901120 6.456720 -0.000001 -0.000000 1.653880 6.131610 0.491080 12.994200 -0.242716 4.980390 -87.855200 -4.061200 -62.129300 5.348090 -0.000007 -0.000001 -68.011700 19.745300 3.838160 24.328600 0.000019 0.000005 5.777550 9.942110 -30.371500 22.291600 -0.000001 0.000005 2.797700 5.506360 -6.791700 12.994500 -0.242716 -4.980390 89.010700 2.857890 -70.896200 -5.348130 -0.000001 -0.000004 -34.351400 16.154200 -38.520500 -24.328900 0.000322 -0.000009 3.219210 3.456220 -43.024200 -22.291500 -0.000108 -0.000004 4.909850 5.532060 -7.886080 -2.192480 -6.469440 -0.000000 177.101000 -24.207900 -27.282000 39.081100 -0.000007 -0.000012 0.018432 -0.033881 28.546400 40.985400 -0.000006 -0.000013 -6.977380 2.130770 -62.858600 11.754300 -0.000000 0.000003 -0.004451 -0.056056 -18.857200 -2.192510 6.469440 -0.000001 170.502000 27.980000 -176.113000 -39.081100 -0.002282 -0.040193 0.074162 -0.131379 28.339500 -40.985400 0.000008 0.000006 -7.664630 -9.535810 -71.842500 -11.754300 -0.000006 -0.000006 -0.003649 -0.047735 -18.514700
0.000000 0.000000 0.000000 0.000000 0.000000 -0.000000 98.649900 89.162600 188.458000 -87.480100 32.800700 -178.521000 15.735700 0.000005 -0.000001 114.312000 81.030200 -114.202000 8.984550 -0.406207 -0.000000 8.628320 7.350810 -0.334344 16.377300 -0.000001 -0.000001 9.124120 6.146150 -2.812790 6.456720 -0.000001 -0.000000 1.384130 5.287920 0.302818 12.994200 -0.242716 4.980390 -87.821100 -4.045290 -61.660200 5.348090 -0.000007 -0.000001 -68.296100 17.173700 4.317720 24.328600 0.000019 0.000005 5.555450 10.024900 -29.194200 22.291600 -0.000001 0.000005 3.260720 5.501510 -6.594270 12.994500 -0.242716 -4.980390 89.119100 2.573400 -71.095300 -5.348130 -0.000001 -0.000004 -33.833600 13.897300 -40.308600 -24.328900 0.000322 -0.000009 2.962520 3.129710 -43.478900 -22.291500 -0.000108 -0.000004 5.555020 5.535760 -8.050830 -2.192480 -6.469440 -0.000000 174.968000 -24.138300 -29.438800 39.081100 -0.000007 -0.000012 0.006541 -0.015357 23.072000 40.985400 -0.000006 -0.000013 -2.806980 -0.876567 -62.832400 11.754300 -0.000000 0.000003 -0.004623 -0.057778 -18.927400 -2.192510 6.469440 -0.000001 170.879000 28.157700 -174.699000 -39.081100 -0.002282 -0.040193 0.056479 -0.097131 28.698800 -40.985400 0.000008 0.000006 -8.814000 -9.817700 -73.546100 -11.754300 -0.000006 -0.000006 -0.392281 -0.491968 -18.626600
0.000000 0.000000 0.000000 0.000000 0.000000 -0.000000 100.520000 88.387300 186.415000 -86.858200 32.425200 -179.339000 15.735700 0.000005 -0.000001 116.708000 80.937300 -116.749000 8.984550 -0.406207 -0.000000 8.491870 8.107820 -0.683593 16.377300 -0.000001 -0.000001 8.840750 6.048920 -2.637500 6.456720 -0.000001 -0.000000 1.116930 4.618600 0.251705 12.994200 -0.242716 4.980390 -87.821100 -3.979680 -61.267200 5.348090 -0.000007 -0.000001 -68.677700 15.445200 4.870380 24.328600 0.000019 0.000005 5.581040 10.534200 -28.123800 22.291600 -0.000001 0.000005 3.450120 5.492470 -6.232800 12.994500 -0.242716 -4.980390 89.191000 2.407540 -71.419300 -5.348130 -0.000001 -0.000004 -34.237000 12.105800 -41.655500 -24.328900 0.000322 -0.000009 2.811780 2.923740 -43.928900 -22.291500 -0.000108 -0.000004 6.109780 5.536750 -8.095650 -2.192480 -6.469440 -0.000000 173.665000 -24.419900 -30.903600 39.081100 -0.000007 -0.000012 -0.014301 0.042110 18.757200 40.985400 -0.000006 -0.000013 -1.686200 -4.120170 -61.375200 11.754300 -0.000000 0.000003 -0.005017 -0.061641 -19.084800 -2.192510 6.469440 -0.000001 171.038000 27.523400 -173.487000 -39.081100 -0.002282 -0.040193 0.031016 -0.048765 29.609900 -40.985400 0.000008 0.000006 -10.036500 -9.798770 -74.692400 -11.754300 -0.000006 -0.000006 -1.136950 -1.346830 -19.407100
0.000000 0.000000 0.000000 0.000000 0.000000 -0.000000 102.389000 87.547400 183.923000 -86.232500 32.906000 179.855000 15.735700 0.000005 -0.000001 119.164000 80.829500 -119.482000 8.984550 -0.406207 -0.000000 8.349970 8.895410 -1.286020 16.377300 -0.000001 -0.000001 8.533140 6.135860 -2.550390 6.456720 -0.000001 -0.000000 0.922726 4.203190 0.492881 12.994200 -0.242716 4.980390 -87.918800 -3.741020 -60.883200 5.348090 -0.000007 -0.000001 -68.933100 14.844800 5.535760 24.328600 0.000019 0.000005 5.525910 10.808100 -27.289900 22.291600 -0.000001 0.000005 3.454220 5.494620 -6.318120 12.994500 -0.242716 -4.980390 89.221000 2.367530 -71.780500 -5.348130 -0.000001 -0.000004 -35.192300 11.289200 -42.970800 -24.328900 0.000322 -0.000009 2.424440 2.503510 -44.120600 -22.291500 -0.000108 -0.000004 6.544930 5.539640 -8.226420 -2.192480 -6.469440 -0.000000 172.191000 -25.047100 -33.272800 39.081100 -0.000007 -0.000012 -0.017628 0.052981 18.403200 40.985400 -0.000006 -0.000013 4.809540 -8.252130 -60.097600 11.754300 -0.000000 0.000003 -0.004721 -0.058752 -18.967100 -2.192510 6.469440 -0.000001 170.790000 26.338100 -172.465000 -39.081100 -0.002282 -0.040193 -0.011553 0.024740 30.978200 -40.985400 0.000008 0.000006 -11.145700 -9.206700 -74.634900 -11.754300 -0.000006 -0.000006 -2.282170 -2.585110 -21.332200
0.000000 0.000000 0.000000 0.000000 0.000000 -0.000000 104.244000 86.796200 180.914000 -86.052300 33.916900 179.255000 15.735700 0.000005 -0.000001 120.994000 80.765900 -121.814000 8.984550 -0.406207 -0.000000 8.217970 9.464900 -2.322090 16.377300 -0.000001 -0.000001 8.499320 6.312270 -2.617230 6.456720 -0.000001 -0.000000 0.505455 3.998490 0.904403 12.994200 -0.242716 4.980390 -88.205600 -3.191060 -60.628500 5.348090 -0.000007 -0.000001 -69.054000 14.553100 6.310400 24.328600 0.000019 0.000005 5.755240 11.529100 -26.760500 22.291600 -0.000001 0.000005 3.168890 5.495420 -6.350140 12.994500 -0.242716 -4.980390 89.155500 2.632110 -72.204600 -5.348130 -0.000001 -0.000004 -36.312400 11.592000 -44.088300 -24.328900 0.000322 -0.000009 2.241100 2.306140 -44.217600 -22.291500 -0.000108 -0.000004 6.920450 5.544620 -8.454900 -2.192480 -6.469440 -0.000000 171.391000 -25.258900 -36.101400 39.081100 -0.000007 -0.000012 0.137226 -0.333565 22.362100 40.985400 -0.000006 -0.000013 13.246900 -9.827930 -55.544900 11.754300 -0.000000 0.000003 -0.004892 -0.060424 -19.035200 -2.192510 6.469440 -0.000001 169.711000 24.883300 -171.664000 -39.081100 -0.002282 -0.040193 -0.107599 0.173635 32.565100 -40.985400 0.000008 0.000006 -12.274000 -8.258420 -72.454500 -11.754300 -0.000006 -0.000006 -3.372860 -3.615300 -25.762300
0.000000 0.000000 0.000000 0.000000 0.000000 -0.000000 106.091000 86.119000 177.341000 -86.096800 34.967100 178.803000 15.735700 0.000005 -0.000001 121.923000 80.875000 -123.386000 8.984550 -0.406207 -0.000000 7.932690 9.608360 -3.594720 16.377300 -0.000001 -0.000001 8.596820 6.585070 -2.748230 6.456720 -0.000001 -0.000000 -0.054235 4.023920 1.637230 12.994200 -0.242716 4.980390 -88.542300 -2.580210 -60.521900 5.348090 -0.000007 -0.000001 -69.188100 13.900400 7.207530 24.328600 0.000019 0.000005 5.959160 12.218400 -26.253100 22.291600 -0.000001 0.000005 3.062610 5.493160 -6.260060 12.994500 -0.242716 -4.980390 89.011500 3.155560 -72.596000 -5.348130 -0.000001 -0.000004 -37.372800 13.392100 -44.598900 -24.328900 0.000322 -0.000009 2.251950 2.291420 -44.539300 -22.291500 -0.000108 -0.000004 7.231160 5.547860 -8.605480 -2.192480 -6.469440 -0.000000 172.696000 -25.027800 -38.924600 39.081100 -0.000007 -0.000012 0.223152 -0.386038 30.030600 40.985400 -0.000006 -0.000013 11.673400 -9.995220 -49.863700 11.754300 -0.000000 0.000003 -0.006061 -0.071394 -19.482500 -2.192510 6.469440 -0.000001 168.200000 22.981000 -171.037000 -39.081100 -0.002282 -0.040193 -0.129648 0.191303 34.796100 -40.985400 0.000008 0.000006 -13.301600 -7.341250 -69.828100 -11.754300 -0.000006 -0.000006 -2.572850 -2.501290 -27.031500
